<svg xmlns="http://www.w3.org/2000/svg" width="38.5" height="33.837" viewBox="0 0 38.5 33.837">
  <g id="shopping-cart_1_" data-name="shopping-cart (1)" transform="translate(0 -31.004)">
    <path id="Path_721" data-name="Path 721" d="M181,394.388A3.384,3.384,0,1,0,184.384,391,3.388,3.388,0,0,0,181,394.388Zm3.384-1.128a1.128,1.128,0,1,1-1.128,1.128A1.129,1.129,0,0,1,184.384,393.26Z" transform="translate(-167.39 -332.93)" fill="#00a9ff"/>
    <path id="Path_722" data-name="Path 722" d="M332,394.388A3.384,3.384,0,1,0,335.384,391,3.388,3.388,0,0,0,332,394.388Zm3.384-1.128a1.128,1.128,0,1,1-1.128,1.128A1.129,1.129,0,0,1,335.384,393.26Z" transform="translate(-307.036 -332.93)" fill="#00a9ff"/>
    <path id="Path_723" data-name="Path 723" d="M37.371,35.516H8.822L7.766,31.822A1.128,1.128,0,0,0,6.682,31H1.128a1.128,1.128,0,0,0,0,2.256h4.7l5.446,19.062-.427.855a3.384,3.384,0,0,0,3.027,4.9H32.86a1.128,1.128,0,0,0,0-2.256H13.876a1.128,1.128,0,0,1-1.009-1.632l.312-.624H32.86a1.128,1.128,0,0,0,1.085-.818l4.512-15.791a1.128,1.128,0,0,0-1.085-1.438ZM32.009,51.306H13.333L9.466,37.771h26.41Z" fill="#00a9ff"/>
  </g>
</svg>
