<svg id="Group_172969" data-name="Group 172969" xmlns="http://www.w3.org/2000/svg" xmlns:xlink="http://www.w3.org/1999/xlink" width="54.703" height="69.013" viewBox="0 0 54.703 69.013">
  <defs>
    <clipPath id="clip-path">
      <rect id="Rectangle_1653" data-name="Rectangle 1653" width="54.703" height="69.013" fill="none"/>
    </clipPath>
  </defs>
  <g id="Group_172968" data-name="Group 172968" clip-path="url(#clip-path)">
    <path id="Path_897" data-name="Path 897" d="M39.746,76.568A3.142,3.142,0,1,0,36.6,79.71a3.143,3.143,0,0,0,3.143-3.143" transform="translate(-19.912 -43.693)" fill="#fff"/>
    <path id="Path_898" data-name="Path 898" d="M66.354,76.568a3.142,3.142,0,1,0-3.143,3.143,3.143,3.143,0,0,0,3.143-3.143" transform="translate(-35.745 -43.693)" fill="#fff"/>
    <path id="Path_899" data-name="Path 899" d="M92.962,76.568a3.142,3.142,0,1,0-3.143,3.143,3.143,3.143,0,0,0,3.143-3.143" transform="translate(-51.579 -43.693)" fill="#fff"/>
    <path id="Path_900" data-name="Path 900" d="M8.835,80.472l.4-12.882H7.413A7.414,7.414,0,0,1,.071,59.147l4.7-33.506a7.447,7.447,0,0,1,7.342-6.384H42.591a7.446,7.446,0,0,1,7.342,6.384l4.7,33.506a7.414,7.414,0,0,1-7.342,8.444H23.841Zm3.277-57.426a3.641,3.641,0,0,0-3.589,3.121l-4.7,33.506A3.625,3.625,0,0,0,7.413,63.8h5.729L12.888,72l9.549-8.2H47.289a3.625,3.625,0,0,0,3.589-4.128l-4.7-33.506a3.641,3.641,0,0,0-3.589-3.121Z" transform="translate(0 -11.459)" fill="#fff"/>
    <path id="Path_901" data-name="Path 901" d="M46.3,15.951H42.511V10.058a10.058,10.058,0,1,1,20.115,0v5.824H58.837V10.058a6.268,6.268,0,1,0-12.537,0Z" transform="translate(-25.297)" fill="#fff"/>
  </g>
</svg>
