<svg xmlns="http://www.w3.org/2000/svg" xmlns:xlink="http://www.w3.org/1999/xlink" width="52.484" height="63.627" viewBox="0 0 52.484 63.627">
  <defs>
    <clipPath id="clip-path">
      <rect id="Rectangle_1618" data-name="Rectangle 1618" width="52.484" height="63.627" fill="none"/>
    </clipPath>
  </defs>
  <g id="Group_172822" data-name="Group 172822" transform="translate(-7.242 -8)">
    <g id="Group_172821" data-name="Group 172821" transform="translate(7.242 8)" clip-path="url(#clip-path)">
      <path id="Path_712" data-name="Path 712" d="M23.042,37.873a2.9,2.9,0,1,0-2.9,2.9,2.9,2.9,0,0,0,2.9-2.9" transform="translate(-3.73 -7.565)" fill="#fff"/>
      <path id="Path_713" data-name="Path 713" d="M35.716,37.873a2.9,2.9,0,1,0-2.9,2.9,2.9,2.9,0,0,0,2.9-2.9" transform="translate(-6.472 -7.565)" fill="#fff"/>
      <path id="Path_714" data-name="Path 714" d="M48.391,37.873a2.9,2.9,0,1,0-2.9,2.9,2.9,2.9,0,0,0,2.9-2.9" transform="translate(-9.213 -7.565)" fill="#fff"/>
      <path id="Path_715" data-name="Path 715" d="M9.171,65.611l.368-11.877H0L6.249,9.174H46.235l6.249,44.56H23.005ZM4.017,50.241h9.125L12.909,57.8l8.8-7.557H48.466L43.2,12.667H9.286Z" transform="translate(0 -1.984)" fill="#fff"/>
      <path id="Path_716" data-name="Path 716" d="M25.052,14.706H21.559V9.272a9.273,9.273,0,0,1,18.545,0v5.37H36.61V9.272a5.779,5.779,0,1,0-11.558,0Z" transform="translate(-4.663 0)" fill="#fff"/>
    </g>
  </g>
</svg>
