<svg xmlns="http://www.w3.org/2000/svg" xmlns:xlink="http://www.w3.org/1999/xlink" width="141.65" height="55.106" viewBox="0 0 141.65 55.106">
  <defs>
    <clipPath id="clip-path">
      <rect id="Rectangle_1630" data-name="Rectangle 1630" width="141.65" height="55.106" fill="none"/>
    </clipPath>
  </defs>
  <g id="Group_172838" data-name="Group 172838" transform="translate(0 0.001)">
    <path id="Path_724" data-name="Path 724" d="M109.165,27.758h-4.338V45.284h-3.06V27.758H97.458V24.972h11.707Z" transform="translate(-39.6 -10.906)" fill="#fff"/>
    <g id="Group_172837" data-name="Group 172837" transform="translate(0 -0.001)">
      <g id="Group_172836" data-name="Group 172836" transform="translate(0 0)" clip-path="url(#clip-path)">
        <path id="Path_725" data-name="Path 725" d="M126.925,38.727V48.883h-2.463l-.218-1.422a4.107,4.107,0,0,1-3.648,1.8c-3.024,0-5.05-1.857-5.05-4.73,0-3.134,2.338-4.73,5.955-4.73h2.4V38.727c0-1.8-.717-2.815-2.369-2.815a2.249,2.249,0,0,0-2.494,2.031h-3.024c.156-2.931,2.276-4.73,5.581-4.73,3.523,0,5.332,2,5.332,5.513M123.9,42.238h-2.4c-1.839,0-2.9.784-2.9,2.293,0,1.393.967,2.234,2.619,2.234a2.409,2.409,0,0,0,2.682-2.437Z" transform="translate(-47.254 -14.505)" fill="#fff"/>
        <path id="Path_726" data-name="Path 726" d="M150.64,33.591V49.667c0,2.9-2.12,4.817-5.518,4.817-3.305,0-5.362-1.857-5.487-4.759H142.6a2.243,2.243,0,0,0,2.525,2.147,2.168,2.168,0,0,0,2.463-2.205V47.288a4.913,4.913,0,0,1-3.086.986c-3.086,0-5.269-2.205-5.269-5.6V39.018c0-3.6,2.183-5.8,5.238-5.8a4.732,4.732,0,0,1,3.71,1.6l.249-1.218Zm-3.056,9.082v-3.83c0-1.973-1.091-2.931-2.588-2.931-1.715,0-2.712.958-2.712,3.1v3.656c0,1.973,1,2.931,2.712,2.931,1.621,0,2.588-.958,2.588-2.931" transform="translate(-56.94 -14.505)" fill="#fff"/>
        <path id="Path_727" data-name="Path 727" d="M162.914,24.813a1.779,1.779,0,0,1,1.9-1.8,1.79,1.79,0,1,1,0,3.57,1.774,1.774,0,0,1-1.9-1.771m.4,4.324h3.024V44.429h-3.024Z" transform="translate(-66.627 -10.05)" fill="#fff"/>
        <path id="Path_728" data-name="Path 728" d="M184.465,23.735V44.744h-2.183l-.218-1.422a4.966,4.966,0,0,1-3.71,1.77c-3.086,0-5.206-2.205-5.206-5.948V34.936c0-3.686,2.027-5.862,5.206-5.862a4.653,4.653,0,0,1,3.18,1.248V23.735Zm-2.931,11.2c0-1.973-1.029-3.192-2.681-3.192-1.746,0-2.65.987-2.65,3.192v4.208c0,2.263,1,3.279,2.65,3.279,1.559,0,2.681-1.045,2.681-3.25Z" transform="translate(-70.812 -10.365)" fill="#fff"/>
        <path id="Path_729" data-name="Path 729" d="M196.726,43.428V39.018c0-3.744,2.213-5.8,5.768-5.8,3.585,0,5.8,2.06,5.8,5.8v4.411c0,3.744-2.214,5.8-5.8,5.8-3.554,0-5.768-2.06-5.768-5.8m8.511,0V39.018c0-2.147-1.029-3.076-2.744-3.076-1.683,0-2.712.929-2.712,3.076v4.411c0,2.147,1.029,3.076,2.712,3.076,1.715,0,2.744-.929,2.744-3.076" transform="translate(-80.455 -14.505)" fill="#fff"/>
        <path id="Path_730" data-name="Path 730" d="M220.1,43.428V39.018c0-3.744,2.213-5.8,5.768-5.8,3.585,0,5.8,2.06,5.8,5.8v4.411c0,3.744-2.214,5.8-5.8,5.8-3.554,0-5.768-2.06-5.768-5.8m8.511,0V39.018c0-2.147-1.029-3.076-2.744-3.076-1.683,0-2.712.929-2.712,3.076v4.411c0,2.147,1.029,3.076,2.712,3.076,1.715,0,2.744-.929,2.744-3.076" transform="translate(-90.012 -14.505)" fill="#fff"/>
        <path id="Path_731" data-name="Path 731" d="M26.048,44.655a2.636,2.636,0,1,0-2.633,2.509,2.573,2.573,0,0,0,2.633-2.509" transform="translate(-8.5 -18.406)" fill="#fff"/>
        <path id="Path_732" data-name="Path 732" d="M41.321,44.655a2.636,2.636,0,1,0-2.633,2.509,2.573,2.573,0,0,0,2.633-2.509" transform="translate(-14.746 -18.406)" fill="#fff"/>
        <path id="Path_733" data-name="Path 733" d="M56.6,44.655a2.636,2.636,0,1,0-2.633,2.509A2.573,2.573,0,0,0,56.6,44.655" transform="translate(-20.992 -18.406)" fill="#fff"/>
        <path id="Path_734" data-name="Path 734" d="M8.334,59.933l.335-10.286H0L5.678,11.053H42.016l5.678,38.593H20.906ZM3.651,46.621h8.292l-.213,6.545,8-6.545H44.044L39.256,14.078H8.439Z" transform="translate(0 -4.827)" fill="#fff"/>
        <path id="Path_735" data-name="Path 735" d="M29.152,12.736H25.978V8.031A8.245,8.245,0,0,1,34.4,0a8.245,8.245,0,0,1,8.426,8.031v4.65H39.656V8.031a5.258,5.258,0,0,0-10.5,0Z" transform="translate(-10.624 0)" fill="#fff"/>
      </g>
    </g>
  </g>
</svg>
