<svg xmlns="http://www.w3.org/2000/svg" xmlns:xlink="http://www.w3.org/1999/xlink" width="32.886" height="32.885" viewBox="0 0 32.886 32.885">
  <defs>
    <clipPath id="clip-path">
      <rect id="Rectangle_1640" data-name="Rectangle 1640" width="32.886" height="32.885" fill="none"/>
    </clipPath>
  </defs>
  <g id="Group_172853" data-name="Group 172853" transform="translate(0 0)">
    <g id="Group_172852" data-name="Group 172852" transform="translate(0 0)" clip-path="url(#clip-path)">
      <path id="Path_751" data-name="Path 751" d="M32.886,16.443A16.443,16.443,0,1,1,16.444,0,16.442,16.442,0,0,1,32.886,16.443" transform="translate(0 0)" fill="#ffce00"/>
      <path id="Path_752" data-name="Path 752" d="M64.256,36.73A2.128,2.128,0,1,1,62.128,34.6a2.128,2.128,0,0,1,2.128,2.129" transform="translate(-37.204 -21.455)" fill="#562912"/>
      <path id="Path_753" data-name="Path 753" d="M57.409,30.46a.524.524,0,0,1-.208-.043.533.533,0,0,1-.286-.695c.04-.1,1.016-2.359,4.44-1.713a.536.536,0,1,1-.2,1.054c-2.537-.478-3.225,1.01-3.253,1.074a.542.542,0,0,1-.494.322" transform="translate(-35.265 -17.296)" fill="#562912"/>
      <path id="Path_754" data-name="Path 754" d="M20.515,36.73A2.128,2.128,0,1,1,18.386,34.6a2.129,2.129,0,0,1,2.129,2.129" transform="translate(-10.081 -21.455)" fill="#562912"/>
      <path id="Path_755" data-name="Path 755" d="M13.666,32.09a.526.526,0,0,1-.209-.043.533.533,0,0,1-.286-.695c.04-.1,1.018-2.356,4.441-1.712a.536.536,0,1,1-.2,1.054c-2.537-.479-3.225,1.011-3.253,1.074a.543.543,0,0,1-.494.322" transform="translate(-8.142 -18.308)" fill="#562912"/>
      <path id="Path_756" data-name="Path 756" d="M46.641,62.564a.8.8,0,0,1-.051-1.607A8.437,8.437,0,0,0,52.6,57.786a.8.8,0,1,1,1.266.992,10.073,10.073,0,0,1-7.177,3.785l-.052,0" transform="translate(-28.422 -35.64)" fill="#562912"/>
    </g>
  </g>
</svg>
