<svg xmlns="http://www.w3.org/2000/svg" xmlns:xlink="http://www.w3.org/1999/xlink" width="33.743" height="33.743" viewBox="0 0 33.743 33.743">
  <defs>
    <clipPath id="clip-path">
      <rect id="Rectangle_1641" data-name="Rectangle 1641" width="33.743" height="33.743" fill="none"/>
    </clipPath>
  </defs>
  <g id="Group_172855" data-name="Group 172855" transform="translate(0 0)">
    <g id="Group_172854" data-name="Group 172854" transform="translate(0 0)" clip-path="url(#clip-path)">
      <path id="Path_757" data-name="Path 757" d="M33.743,16.871A16.872,16.872,0,1,1,16.871,0,16.871,16.871,0,0,1,33.743,16.871" transform="translate(0 0)" fill="#ffce00"/>
      <path id="Path_758" data-name="Path 758" d="M65.544,33.857a.264.264,0,0,0,.4-.22v-.005a2.228,2.228,0,1,0-4.457,0v.005a.265.265,0,0,0,.406.22,3.476,3.476,0,0,1,3.647,0" transform="translate(-37.52 -19.161)" fill="#562912"/>
      <path id="Path_759" data-name="Path 759" d="M17.679,33.857a.266.266,0,0,0,.406-.22v-.005a2.229,2.229,0,0,0-4.458,0v.005a.265.265,0,0,0,.406.22,3.476,3.476,0,0,1,3.647,0" transform="translate(-8.315 -19.161)" fill="#562912"/>
      <path id="Path_760" data-name="Path 760" d="M20.048,47.765a1,1,0,0,0-.637,1.3,10.253,10.253,0,0,0,18.527,0,1,1,0,0,0-.637-1.3,28.807,28.807,0,0,0-17.254,0" transform="translate(-11.804 -28.337)" fill="#562912"/>
      <path id="Path_761" data-name="Path 761" d="M31.375,62.989a10.436,10.436,0,0,0,9.281,0,7.751,7.751,0,0,0-9.281,0" transform="translate(-19.144 -37.491)" fill="#cc342f"/>
    </g>
  </g>
</svg>
