<svg xmlns="http://www.w3.org/2000/svg" width="33.348" height="30.391" viewBox="0 0 33.348 30.391">
  <g id="Layer_47" data-name="Layer 47" transform="translate(-2.049 -2.96)">
    <path id="Path_698" data-name="Path 698" d="M34.912,17.381,3.183,3.024a.845.845,0,0,0-.877.144.8.8,0,0,0-.207.861l5.2,14.15L2.1,32.265a.8.8,0,0,0,.207.861.877.877,0,0,0,.542.207.829.829,0,0,0,.335,0L34.912,18.976a.8.8,0,0,0,0-1.468ZM4.252,5.337,30.892,17.381H8.7ZM8.7,18.976h22.19L4.252,31.02Z" transform="translate(0)" fill="#fff"/>
  </g>
</svg>
