<?xml version="1.0" encoding="utf-8"?>
<!-- Generator: Adobe Illustrator 26.0.2, SVG Export Plug-In . SVG Version: 6.00 Build 0)  -->
<svg version="1.1" id="Layer_1" xmlns="http://www.w3.org/2000/svg" xmlns:xlink="http://www.w3.org/1999/xlink" x="0px" y="0px"
	 viewBox="0 0 678.38 372.28" style="enable-background:new 0 0 678.38 372.28;" xml:space="preserve">
<style type="text/css">
	.st0{fill:url(#SVGID_1_);}
	.st1{fill:#FFFFFF;}
	.st2{fill:none;stroke:#FFFFFF;stroke-width:3.2796;stroke-miterlimit:10;}
	.st3{fill:#00A9FF;}
	.st4{fill:#00FFFF;}
	.st5{fill:url(#SVGID_00000141450511250837667030000017617895795872701059_);}
	.st6{fill:url(#SVGID_00000029038723264916246920000004039172993404628902_);}
	.st7{fill:url(#SVGID_00000034063351876568344640000005167593540853735829_);}
	.st8{fill:url(#SVGID_00000177473114397004585710000007442616007832327050_);}
	.st9{fill:url(#SVGID_00000075163299326835178400000005395130252514822567_);}
	.st10{fill:none;stroke:#00A9FF;stroke-width:3.2796;stroke-miterlimit:10;}
	.st11{fill:url(#SVGID_00000127722209821015302850000018014982361208523676_);}
	.st12{fill:url(#SVGID_00000014593460564500967910000016523425629043202723_);}
	.st13{fill:url(#SVGID_00000015317960107297554410000000541398993019976073_);}
	.st14{fill:none;stroke:#00A9FF;stroke-width:8.2298;stroke-miterlimit:10;}
	.st15{fill:none;stroke:#00A9FF;stroke-width:9.3578;stroke-miterlimit:10;}
</style>
<g>
	<g>
		<path class="st3" d="M292.04,196.94v9.44h-3.93c-11.16,0-17.74-6.95-17.74-18.26v-27.91h-7.86v-9.13h7.86v-12.97h10.2v12.97h10.41
			v9.13h-10.41v28.01c0,5.92,2.55,8.72,8.07,8.72H292.04z"/>
		<path class="st3" d="M334.64,169.44v36.32h-8.39l-0.74-5.08c-2.23,3.63-6.27,6.43-12.43,6.43c-10.31,0-17.21-6.64-17.21-16.91
			c0-11.21,7.97-16.91,20.29-16.91h8.18v-3.84c0-6.43-2.44-10.06-8.08-10.06c-4.57,0-7.97,2.39-8.5,7.26h-10.31
			c0.53-10.48,7.76-16.91,19.02-16.91C328.48,149.73,334.64,156.89,334.64,169.44z M324.33,182h-8.18c-6.27,0-9.88,2.8-9.88,8.2
			c0,4.98,3.29,7.99,8.92,7.99c5.63,0,9.14-3.53,9.14-8.72V182z"/>
		<path class="st3" d="M382.45,151.08v57.48c0,10.38-7.23,17.22-18.81,17.22c-11.26,0-18.27-6.64-18.7-17.02h10.09
			c0.43,4.88,3.4,7.68,8.61,7.68c5.21,0,8.39-3.01,8.39-7.89v-8.51c-2.76,2.28-6.37,3.53-10.52,3.53
			c-10.52,0-17.96-7.89-17.96-20.03v-13.07c0-12.87,7.44-20.75,17.85-20.75c5.21,0,9.56,1.97,12.64,5.71l0.85-4.36H382.45z
			 M372.04,183.56v-13.7c0-7.06-3.72-10.48-8.82-10.48c-5.84,0-9.24,3.42-9.24,11.1v13.07c0,7.06,3.4,10.48,9.24,10.48
			C368.75,194.04,372.04,190.61,372.04,183.56z"/>
		<path class="st3" d="M391.27,135.62c0-3.74,2.66-6.43,6.48-6.43s6.59,2.7,6.59,6.43c0,3.53-2.76,6.33-6.59,6.33
			S391.27,139.25,391.27,135.62z M392.65,151.08h10.31v54.68h-10.31V151.08z"/>
		<path class="st3" d="M450.45,130.64v75.12h-7.44l-0.74-5.08c-2.76,3.53-7.54,6.33-12.64,6.33c-10.52,0-17.74-7.89-17.74-21.27
			v-15.04c0-13.18,6.91-20.96,17.74-20.96c4.04,0,8.08,1.66,10.84,4.46v-23.55H450.45z M440.46,170.69c0-7.06-3.51-11.41-9.14-11.41
			c-5.95,0-9.03,3.53-9.03,11.41v15.04c0,8.09,3.4,11.73,9.03,11.73c5.31,0,9.14-3.74,9.14-11.62V170.69z"/>
		<path class="st3" d="M459.37,186.25v-15.77c0-13.39,7.54-20.75,19.66-20.75c12.22,0,19.76,7.37,19.76,20.75v15.77
			c0,13.38-7.54,20.75-19.76,20.75C466.92,207.01,459.37,199.64,459.37,186.25z M488.38,186.25v-15.77c0-7.68-3.51-11-9.35-11
			c-5.74,0-9.24,3.32-9.24,11v15.77c0,7.68,3.51,11,9.24,11C484.87,197.25,488.38,193.93,488.38,186.25z"/>
		<path class="st3" d="M506.44,186.25v-15.77c0-13.39,7.54-20.75,19.66-20.75c12.22,0,19.76,7.37,19.76,20.75v15.77
			c0,13.38-7.54,20.75-19.76,20.75C513.99,207.01,506.44,199.64,506.44,186.25z M535.45,186.25v-15.77c0-7.68-3.51-11-9.35-11
			c-5.74,0-9.24,3.32-9.24,11v15.77c0,7.68,3.51,11,9.24,11C531.94,197.25,535.45,193.93,535.45,186.25z"/>
	</g>
</g>
<g>
	<g>
		<g>
			<g>
				<circle class="st3" cx="151.39" cy="169.61" r="7.76"/>
			</g>
			<g>
				<circle class="st3" cx="178" cy="169.61" r="7.76"/>
			</g>
			<g>
				<circle class="st3" cx="204.61" cy="169.61" r="7.76"/>
			</g>
		</g>
		<path class="st3" d="M131.99,258.86l0.99-31.81h-4.5c-5.3,0-10.34-2.29-13.82-6.29c-3.48-4-5.05-9.31-4.32-14.56l11.6-82.75
			c1.26-8.99,9.06-15.77,18.13-15.77h75.27c9.08,0,16.87,6.78,18.13,15.77l11.6,82.75c0.74,5.25-0.84,10.56-4.32,14.56
			c-3.48,4-8.51,6.29-13.82,6.29h-57.91L131.99,258.86z M140.08,117.04c-4.44,0-8.25,3.31-8.86,7.71l-11.6,82.75
			c-0.36,2.57,0.41,5.16,2.11,7.12c1.7,1.96,4.16,3.08,6.75,3.08h14.15L142,237.93l23.58-20.24h61.37c2.59,0,5.05-1.12,6.75-3.08
			c1.7-1.96,2.47-4.55,2.11-7.12l-11.6-82.75c-0.62-4.39-4.43-7.71-8.86-7.71H140.08z"/>
		<path class="st3" d="M162.04,127.82h-9.36v-14.55c0-13.7,11.14-24.84,24.84-24.84s24.84,11.14,24.84,24.84v14.38H193v-14.38
			c0-8.54-6.94-15.48-15.48-15.48s-15.48,6.94-15.48,15.48V127.82z"/>
	</g>
</g>
</svg>
