<svg id="Group_172967" data-name="Group 172967" xmlns="http://www.w3.org/2000/svg" xmlns:xlink="http://www.w3.org/1999/xlink" width="241.428" height="263.064" viewBox="0 0 241.428 263.064">
  <defs>
    <clipPath id="clip-path">
      <rect id="Rectangle_1652" data-name="Rectangle 1652" width="241.428" height="263.064" fill="none"/>
    </clipPath>
  </defs>
  <g id="Group_172966" data-name="Group 172966" clip-path="url(#clip-path)">
    <path id="Path_870" data-name="Path 870" d="M37.4,290.027v.6h2.156v1.816H37.4v9.064h-2.03v-9.064H33.74v-1.816h1.627v-.6c0-2.25,1.162-3.757,3.741-3.757h.655v1.816h-.655c-1.162,0-1.712.578-1.712,1.94" transform="translate(-4.993 -42.364)" fill="#fff"/>
    <path id="Path_871" data-name="Path 871" d="M51.876,291.256v1.982a3.458,3.458,0,0,0-1.373-.248,2.2,2.2,0,0,0-2.283,2.519v6.71H46.168V291.339h1.459l.233,1.258a3.123,3.123,0,0,1,2.854-1.506,3.2,3.2,0,0,1,1.162.165" transform="translate(-6.832 -43.077)" fill="#fff"/>
    <path id="Path_872" data-name="Path 872" d="M58,287.55a1.234,1.234,0,0,1,1.289-1.28,1.27,1.27,0,1,1,0,2.538A1.229,1.229,0,0,1,58,287.55m.274,3.076h2.051v10.88H58.276Z" transform="translate(-8.583 -42.364)" fill="#fff"/>
    <path id="Path_873" data-name="Path 873" d="M74.874,298.808a3.688,3.688,0,0,1-4.058,3.634c-2.326,0-3.785-1.487-3.785-4.088v-3.242c0-2.58,1.459-4.046,3.806-4.046,2.388,0,3.889,1.466,3.889,4.046v2.416H69.082v.826c0,1.487.655,2.167,1.776,2.167a1.73,1.73,0,0,0,1.966-1.713Zm-5.792-3.716v.929H72.7v-.929c0-1.487-.676-2.148-1.839-2.148-1.12,0-1.776.661-1.776,2.148" transform="translate(-9.92 -43.073)" fill="#fff"/>
    <path id="Path_874" data-name="Path 874" d="M89.882,295.382v6.834H87.831v-6.731c0-1.776-.486-2.519-1.564-2.519-1.162,0-1.9.908-1.9,2.519v6.731h-2.05v-10.88h1.459l.211,1.218a3.077,3.077,0,0,1,2.769-1.487c1.924,0,3.129,1.342,3.129,4.315" transform="translate(-12.181 -43.073)" fill="#fff"/>
    <path id="Path_875" data-name="Path 875" d="M105.045,286.608v14.947h-1.48l-.147-1.011A3.311,3.311,0,0,1,100.9,301.8c-2.093,0-3.53-1.569-3.53-4.232v-2.994c0-2.622,1.373-4.171,3.53-4.171a3.077,3.077,0,0,1,2.156.888v-4.686Zm-1.987,7.969c0-1.4-.7-2.271-1.818-2.271-1.183,0-1.8.7-1.8,2.271v2.994c0,1.61.676,2.333,1.8,2.333,1.057,0,1.818-.743,1.818-2.312Z" transform="translate(-14.41 -42.414)" fill="#fff"/>
    <rect id="Rectangle_1651" data-name="Rectangle 1651" width="2.05" height="14.947" transform="translate(96.216 244.195)" fill="#fff"/>
    <path id="Path_876" data-name="Path 876" d="M129.189,291.382l-3.572,11.726c-.528,1.776-1.31,3.076-2.98,3.076h-1.1v-1.94h.7c.866,0,1.142-.6,1.417-1.486l.486-1.632-3.594-9.745H122.7l2.3,6.9,2.072-6.9Z" transform="translate(-17.838 -43.12)" fill="#fff"/>
    <path id="Path_877" data-name="Path 877" d="M147.495,290.027v.6h2.156v1.816h-2.156v9.064h-2.03v-9.064h-1.627v-1.816h1.627v-.6c0-2.25,1.162-3.757,3.741-3.757h.655v1.816h-.655c-1.162,0-1.712.578-1.712,1.94" transform="translate(-21.286 -42.364)" fill="#fff"/>
    <path id="Path_878" data-name="Path 878" d="M163.811,298.808a3.687,3.687,0,0,1-4.058,3.634c-2.326,0-3.785-1.487-3.785-4.088v-3.242c0-2.58,1.459-4.046,3.807-4.046,2.387,0,3.889,1.466,3.889,4.046v2.416H158.02v.826c0,1.487.655,2.167,1.776,2.167a1.731,1.731,0,0,0,1.966-1.713Zm-5.791-3.716v.929h3.614v-.929c0-1.487-.676-2.148-1.839-2.148-1.12,0-1.776.661-1.776,2.148" transform="translate(-23.081 -43.073)" fill="#fff"/>
    <path id="Path_879" data-name="Path 879" d="M178.8,298.808a3.688,3.688,0,0,1-4.058,3.634c-2.326,0-3.785-1.487-3.785-4.088v-3.242c0-2.58,1.459-4.046,3.806-4.046,2.388,0,3.889,1.466,3.889,4.046v2.416H173v.826c0,1.487.655,2.167,1.776,2.167a1.73,1.73,0,0,0,1.966-1.713ZM173,295.093v.929h3.615v-.929c0-1.487-.676-2.148-1.84-2.148-1.12,0-1.776.661-1.776,2.148" transform="translate(-25.298 -43.073)" fill="#fff"/>
    <path id="Path_880" data-name="Path 880" d="M193.61,286.608v14.947h-1.48l-.147-1.011a3.311,3.311,0,0,1-2.516,1.259c-2.093,0-3.53-1.569-3.53-4.232v-2.994c0-2.622,1.373-4.171,3.53-4.171a3.077,3.077,0,0,1,2.156.888v-4.686Zm-1.987,7.969c0-1.4-.7-2.271-1.818-2.271-1.183,0-1.8.7-1.8,2.271v2.994c0,1.61.676,2.333,1.8,2.333,1.057,0,1.818-.743,1.818-2.312Z" transform="translate(-27.516 -42.414)" fill="#fff"/>
    <path id="Path_881" data-name="Path 881" d="M209.237,294.577v2.994c0,2.663-1.437,4.232-3.552,4.232a3.358,3.358,0,0,1-2.515-1.239l-.148.991h-1.48V286.608h2.008v4.666a3.1,3.1,0,0,1,2.135-.867c2.156,0,3.552,1.549,3.552,4.171m-2.093,0c0-1.569-.613-2.271-1.8-2.271-1.12,0-1.8.867-1.8,2.271v3.014c0,1.569.74,2.312,1.8,2.312,1.142,0,1.8-.722,1.8-2.333Z" transform="translate(-29.825 -42.414)" fill="#fff"/>
    <path id="Path_882" data-name="Path 882" d="M223.895,294.99v7.226h-1.67l-.148-1.012a2.747,2.747,0,0,1-2.473,1.281,3.2,3.2,0,0,1-3.424-3.365c0-2.23,1.585-3.365,4.037-3.365h1.628v-.764c0-1.281-.486-2-1.607-2a1.545,1.545,0,0,0-1.691,1.445H216.5a3.428,3.428,0,0,1,3.784-3.365c2.389,0,3.615,1.425,3.615,3.923m-2.051,2.5h-1.628c-1.247,0-1.966.557-1.966,1.631,0,.991.655,1.59,1.776,1.59a1.669,1.669,0,0,0,1.818-1.735Z" transform="translate(-31.991 -43.073)" fill="#fff"/>
    <path id="Path_883" data-name="Path 883" d="M231.535,298.457V295.03c0-2.519,1.437-3.964,3.763-3.964,2.41,0,3.783,1.445,3.868,3.964h-2.072c-.042-1.384-.655-2.044-1.776-2.044-1.078,0-1.712.66-1.712,2.044v3.427c0,1.384.634,2.064,1.712,2.064,1.142,0,1.776-.681,1.839-2.064h2.05c-.063,2.539-1.543,3.985-3.91,3.985-2.326,0-3.763-1.446-3.763-3.985" transform="translate(-34.264 -43.073)" fill="#fff"/>
    <path id="Path_884" data-name="Path 884" d="M249.249,296.58l-.825.867v4.108h-2.03V286.609h2.03v8.32l3.171-4.253h2.431l-3.424,4.356,3.953,6.524h-2.346Z" transform="translate(-36.463 -42.414)" fill="#fff"/>
    <path id="Path_885" data-name="Path 885" d="M25.166,234.581v8.045H21.817c-9.505,0-15.117-5.923-15.117-15.559V203.286H0v-7.78H6.7V184.456h8.69v11.051h8.872v7.78H15.389v23.868c0,5.04,2.173,7.426,6.88,7.426Z" transform="translate(0 -27.297)" fill="#fff"/>
    <path id="Path_886" data-name="Path 886" d="M66.4,212.874v30.943H59.25l-.634-4.332c-1.9,3.095-5.34,5.481-10.591,5.481-8.781,0-14.666-5.657-14.666-14.41,0-9.548,6.79-14.41,17.291-14.41h6.97v-3.271c0-5.48-2.082-8.575-6.88-8.575-3.893,0-6.789,2.034-7.242,6.188H34.718c.452-8.929,6.608-14.41,16.2-14.41,10.229,0,15.479,6.1,15.479,16.8m-8.781,10.7h-6.97c-5.341,0-8.419,2.387-8.419,6.984,0,4.244,2.806,6.808,7.6,6.808s7.786-3.006,7.786-7.426Z" transform="translate(-4.937 -29.016)" fill="#fff"/>
    <path id="Path_887" data-name="Path 887" d="M114.2,197.226V246.2c0,8.841-6.156,14.675-16.023,14.675-9.6,0-15.571-5.657-15.933-14.5h8.6c.363,4.155,2.9,6.542,7.333,6.542s7.151-2.564,7.151-6.719v-7.249a13.825,13.825,0,0,1-8.962,3.005c-8.962,0-15.3-6.718-15.3-17.062V213.759c0-10.962,6.336-17.681,15.208-17.681a13.45,13.45,0,0,1,10.773,4.862l.724-3.713ZM105.326,224.9V213.228c0-6.012-3.168-8.929-7.513-8.929-4.979,0-7.876,2.917-7.876,9.46V224.9c0,6.012,2.9,8.928,7.876,8.928,4.707,0,7.513-2.916,7.513-8.928" transform="translate(-11.996 -29.016)" fill="#fff"/>
    <path id="Path_888" data-name="Path 888" d="M128.771,181.014a5.285,5.285,0,0,1,5.521-5.482,5.44,5.44,0,1,1,0,10.874,5.263,5.263,0,0,1-5.521-5.392m1.176,13.172h8.781v46.59h-8.781Z" transform="translate(-19.056 -25.976)" fill="#fff"/>
    <path id="Path_889" data-name="Path 889" d="M182.243,176.985V240.99h-6.336l-.634-4.332a14.173,14.173,0,0,1-10.772,5.393c-8.962,0-15.118-6.718-15.118-18.123V211.109c0-11.228,5.885-17.857,15.118-17.857a13.173,13.173,0,0,1,9.233,3.8V176.985Zm-8.509,34.124c0-6.012-2.987-9.724-7.785-9.724-5.069,0-7.695,3.005-7.695,9.724v12.819c0,6.9,2.9,9.991,7.695,9.991,4.526,0,7.785-3.183,7.785-9.9Z" transform="translate(-22.106 -26.191)" fill="#fff"/>
    <path id="Path_890" data-name="Path 890" d="M196.875,227.2V213.759c0-11.405,6.427-17.681,16.746-17.681,10.411,0,16.838,6.276,16.838,17.681V227.2c0,11.4-6.428,17.681-16.838,17.681-10.32,0-16.746-6.277-16.746-17.681m24.713,0V213.759c0-6.543-2.987-9.372-7.966-9.372-4.888,0-7.875,2.83-7.875,9.372V227.2c0,6.542,2.987,9.37,7.875,9.37,4.979,0,7.966-2.829,7.966-9.37" transform="translate(-29.134 -29.016)" fill="#fff"/>
    <path id="Path_891" data-name="Path 891" d="M243.943,227.2V213.759c0-11.405,6.427-17.681,16.746-17.681,10.411,0,16.838,6.276,16.838,17.681V227.2c0,11.4-6.428,17.681-16.838,17.681-10.32,0-16.746-6.277-16.746-17.681m24.713,0V213.759c0-6.543-2.987-9.372-7.966-9.372-4.888,0-7.875,2.83-7.875,9.372V227.2c0,6.542,2.987,9.37,7.875,9.37,4.979,0,7.966-2.829,7.966-9.37" transform="translate(-36.1 -29.016)" fill="#fff"/>
    <path id="Path_892" data-name="Path 892" d="M130.394,80.038a6.612,6.612,0,1,0-6.612,6.613,6.613,6.613,0,0,0,6.612-6.613" transform="translate(-17.339 -10.866)" fill="#fff"/>
    <path id="Path_893" data-name="Path 893" d="M157,80.038a6.612,6.612,0,1,0-6.612,6.613A6.613,6.613,0,0,0,157,80.038" transform="translate(-21.277 -10.866)" fill="#fff"/>
    <path id="Path_894" data-name="Path 894" d="M183.61,80.038A6.612,6.612,0,1,0,177,86.651a6.613,6.613,0,0,0,6.612-6.613" transform="translate(-25.214 -10.866)" fill="#fff"/>
    <path id="Path_895" data-name="Path 895" d="M102.3,148.062l.84-27.105H99.309a15.6,15.6,0,0,1-15.449-17.766l9.886-70.5A15.669,15.669,0,0,1,109.2,19.258h64.131a15.667,15.667,0,0,1,15.448,13.433l9.886,70.5a15.6,15.6,0,0,1-15.448,17.766H133.874ZM109.2,27.23a7.66,7.66,0,0,0-7.552,6.567l-9.886,70.5a7.627,7.627,0,0,0,7.552,8.685h12.055l-.535,17.248,20.092-17.248h52.291a7.627,7.627,0,0,0,7.552-8.685l-9.886-70.5a7.66,7.66,0,0,0-7.552-6.567Z" transform="translate(-12.388 -2.85)" fill="#fff"/>
    <path id="Path_896" data-name="Path 896" d="M134.193,33.564h-7.972v-12.4a21.162,21.162,0,1,1,42.324,0V33.419h-7.972V21.163a13.19,13.19,0,1,0-26.379,0Z" transform="translate(-18.679 0)" fill="#fff"/>
  </g>
</svg>
