<svg xmlns="http://www.w3.org/2000/svg" xmlns:xlink="http://www.w3.org/1999/xlink" width="286.428" height="304.827" viewBox="0 0 286.428 304.827">
  <defs>
    <clipPath id="clip-path">
      <path id="Path_794" data-name="Path 794" d="M0,0H286.428V-304.827H0Z" fill="none"/>
    </clipPath>
  </defs>
  <g id="Group_172925" data-name="Group 172925" transform="translate(0 304.827)">
    <g id="Group_172894" data-name="Group 172894" transform="translate(34.489 -16.232)">
      <path id="Path_792" data-name="Path 792" d="M0,0V15.958H3.316V9.347H7.61V6.384H3.316V3.078H8.078V0Z" fill="#00a8ff"/>
    </g>
    <g id="Group_172896" data-name="Group 172896" clip-path="url(#clip-path)">
      <g id="Group_172895" data-name="Group 172895" transform="translate(52.533 -5.631)">
        <path id="Path_793" data-name="Path 793" d="M0,0H-1.167V5.357H-4.482V-10.6H.257c3.245,0,5.16,1.961,5.16,5.312A4.991,4.991,0,0,1,3.152-.684L6.233,5.357H2.615ZM-1.167-3.077H.21c1.167,0,1.8-.776,1.8-2.212,0-1.459-.631-2.233-1.8-2.233H-1.167Z" fill="#00a8ff"/>
      </g>
    </g>
    <path id="Path_795" data-name="Path 795" d="M63.831-.274h3.316V-16.232H63.831Z" fill="#00a8ff"/>
    <g id="Group_172897" data-name="Group 172897" transform="translate(73.541 -16.232)">
      <path id="Path_796" data-name="Path 796" d="M0,0V15.958H8.662V12.881H3.316V9.347H7.96V6.384H3.316V3.078H8.428V0Z" fill="#00a8ff"/>
    </g>
    <g id="Group_172900" data-name="Group 172900" clip-path="url(#clip-path)">
      <g id="Group_172898" data-name="Group 172898" transform="translate(98.379 -16.231)">
        <path id="Path_797" data-name="Path 797" d="M0,0V15.958H-3.269L-6.023,9.78l-1.471-3.9-.07.068a63.535,63.535,0,0,1,.42,6.771v3.237h-3.269V0h3.269l3.105,6.931c.4,1,.77,2.051,1.167,3.054l.07-.068a53.919,53.919,0,0,1-.467-6.224V0Z" fill="#00a8ff"/>
      </g>
      <g id="Group_172899" data-name="Group 172899" transform="translate(104.773 -16.231)">
        <path id="Path_798" data-name="Path 798" d="M0,0H4.482c3.292,0,5.23,1.961,5.23,5.289v5.267c0,3.4-1.914,5.4-5.183,5.4H0ZM4.529,12.881c1.191,0,1.821-.8,1.821-2.325V5.289c0-1.459-.63-2.211-1.821-2.211H3.315v9.8Z" fill="#00a8ff"/>
      </g>
    </g>
    <g id="Group_172901" data-name="Group 172901" transform="translate(120.413 -16.232)">
      <path id="Path_800" data-name="Path 800" d="M0,0V15.958H8.171V12.881H3.316V0Z" fill="#00a8ff"/>
    </g>
    <g id="Group_172903" data-name="Group 172903" clip-path="url(#clip-path)">
      <g id="Group_172902" data-name="Group 172902" transform="translate(136.076 -5.016)">
        <path id="Path_801" data-name="Path 801" d="M0,0-3.852-11.216H-.42L.911-6.793c.163.524.536,1.778.7,2.554H1.7c.187-.776.561-2.03.747-2.622l1.284-4.355H7.167L3.315,0V4.742H0Z" fill="#00a8ff"/>
      </g>
    </g>
    <g id="Group_172904" data-name="Group 172904" transform="translate(156.36 -16.232)">
      <path id="Path_803" data-name="Path 803" d="M0,0V15.958H3.316V9.347h4.3V6.384h-4.3V3.078H8.078V0Z" fill="#00a8ff"/>
    </g>
    <g id="Group_172905" data-name="Group 172905" transform="translate(169.922 -16.232)">
      <path id="Path_804" data-name="Path 804" d="M0,0V15.958H8.662V12.881H3.316V9.347H7.961V6.384H3.316V3.078H8.428V0Z" fill="#00a8ff"/>
    </g>
    <g id="Group_172906" data-name="Group 172906" transform="translate(184.348 -16.232)">
      <path id="Path_805" data-name="Path 805" d="M0,0V15.958H8.662V12.881H3.316V9.347H7.96V6.384H3.316V3.078H8.428V0Z" fill="#00a8ff"/>
    </g>
    <g id="Group_172911" data-name="Group 172911" clip-path="url(#clip-path)">
      <g id="Group_172907" data-name="Group 172907" transform="translate(198.773 -16.231)">
        <path id="Path_806" data-name="Path 806" d="M0,0H4.482c3.292,0,5.23,1.961,5.23,5.289v5.267c0,3.4-1.914,5.4-5.183,5.4H0ZM4.529,12.881c1.191,0,1.821-.8,1.821-2.325V5.289c0-1.459-.63-2.211-1.821-2.211H3.315v9.8Z" fill="#00a8ff"/>
      </g>
      <g id="Group_172908" data-name="Group 172908" transform="translate(224.381 -5.038)">
        <path id="Path_807" data-name="Path 807" d="M0,0A4.572,4.572,0,0,1-4.809,4.765h-5.16V-11.193h5.09A4.23,4.23,0,0,1-.56-6.656,4.514,4.514,0,0,1-1.937-3.4,3.837,3.837,0,0,1,0,0M-6.653-8.139V-4.81h1.307c.934,0,1.424-.592,1.424-1.71,0-1.071-.467-1.619-1.541-1.619ZM-3.408-.022c0-1.164-.677-1.756-1.915-1.756h-1.33V1.71h1.26c1.308,0,1.985-.593,1.985-1.732" fill="#00a8ff"/>
      </g>
      <g id="Group_172909" data-name="Group 172909" transform="translate(236.076 -2.918)">
        <path id="Path_808" data-name="Path 808" d="M0,0H-3.455l-.537,2.645H-7.424L-3.5-13.313H.046L3.969,2.645H.537ZM-.654-3.077-1.027-4.9c-.21-1.14-.491-3.078-.654-4.377h-.093c-.164,1.3-.421,3.237-.654,4.377L-2.8-3.077Z" fill="#00a8ff"/>
      </g>
      <g id="Group_172910" data-name="Group 172910" transform="translate(244.595 -5.152)">
        <path id="Path_809" data-name="Path 809" d="M0,0V-6.2c0-3.374,1.868-5.2,5.066-5.2,3.268,0,5.09,1.823,5.206,5.2H6.957C6.864-7.659,6.3-8.252,5.043-8.252c-1,0-1.588.639-1.588,2.052V0c0,1.368.561,2.007,1.588,2.007C6.327,2.007,6.911,1.414,7,0h3.315c-.07,3.352-1.961,5.152-5.276,5.152C1.868,5.152,0,3.352,0,0" fill="#00a8ff"/>
      </g>
    </g>
    <g id="Group_172912" data-name="Group 172912" transform="translate(266.725 -16.232)">
      <path id="Path_811" data-name="Path 811" d="M0,0-2.289,4.332-3.128,6.11V0H-6.4V15.958h3.269v-4.6l.909-1.437L.747,15.958H4.482L-.374,6.977,3.782,0Z" fill="#00a8ff"/>
    </g>
    <g id="Group_172913" data-name="Group 172913" transform="translate(0 -125.352)">
      <path id="Path_812" data-name="Path 812" d="M0,0V9.961H15.406V72.632H26.349V9.961H41.862V0Z" fill="#00a8ff"/>
    </g>
    <g id="Group_172924" data-name="Group 172924" clip-path="url(#clip-path)">
      <g id="Group_172914" data-name="Group 172914" transform="translate(75.209 -89.036)">
        <path id="Path_813" data-name="Path 813" d="M0,0V36.316H-8.394l-.743-5.085c-2.231,3.632-6.269,6.434-12.431,6.434-10.306,0-17.212-6.641-17.212-16.913,0-11.206,7.968-16.913,20.293-16.913h8.181V0c0-6.433-2.444-10.064-8.075-10.064-4.568,0-7.968,2.386-8.5,7.262H-37.187c.532-10.479,7.757-16.912,19.019-16.912C-6.162-19.714,0-12.555,0,0M-10.306,12.555h-8.181c-6.268,0-9.881,2.8-9.881,8.2,0,4.98,3.294,7.989,8.925,7.989s9.137-3.527,9.137-8.716Z" fill="#00a8ff"/>
      </g>
      <g id="Group_172915" data-name="Group 172915" transform="translate(123.021 -107.401)">
        <path id="Path_814" data-name="Path 814" d="M0,0V57.482C0,67.858-7.225,74.707-18.806,74.707c-11.262,0-18.275-6.641-18.7-17.017h10.093c.425,4.877,3.4,7.678,8.606,7.678s8.393-3.009,8.393-7.886V48.975A16.225,16.225,0,0,1-20.931,52.5c-10.518,0-17.956-7.886-17.956-20.025V19.4c0-12.866,7.438-20.752,17.85-20.752A15.786,15.786,0,0,1-8.394,4.357L-7.544,0ZM-10.413,32.477V18.78c0-7.055-3.718-10.479-8.818-10.479-5.844,0-9.243,3.424-9.243,11.1V32.477c0,7.055,3.4,10.479,9.243,10.479,5.525,0,8.818-3.424,8.818-10.479" fill="#00a8ff"/>
      </g>
      <g id="Group_172916" data-name="Group 172916" transform="translate(131.838 -122.862)">
        <path id="Path_815" data-name="Path 815" d="M0,0A6.2,6.2,0,0,1,6.481-6.433,6.289,6.289,0,0,1,13.068,0,6.327,6.327,0,0,1,6.481,6.33,6.178,6.178,0,0,1,0,0M1.381,15.461H11.687V70.142H1.381Z" fill="#00a8ff"/>
      </g>
      <g id="Group_172917" data-name="Group 172917" transform="translate(191.018 -127.842)">
        <path id="Path_816" data-name="Path 816" d="M0,0V75.122H-7.437l-.744-5.084a16.639,16.639,0,0,1-12.644,6.329c-10.518,0-17.743-7.886-17.743-21.271V40.051c0-13.177,6.906-20.959,17.743-20.959A15.464,15.464,0,0,1-9.987,23.553V0ZM-9.987,40.051c0-7.055-3.507-11.413-9.138-11.413-5.949,0-9.031,3.528-9.031,11.413V55.1c0,8.094,3.4,11.725,9.031,11.725,5.313,0,9.138-3.735,9.138-11.621Z" fill="#00a8ff"/>
      </g>
      <g id="Group_172918" data-name="Group 172918" transform="translate(199.942 -72.227)">
        <path id="Path_817" data-name="Path 817" d="M0,0V-15.771C0-29.157,7.543-36.523,19.656-36.523c12.218,0,19.762,7.366,19.762,20.752V0c0,13.385-7.544,20.752-19.762,20.752C7.543,20.752,0,13.385,0,0M29,0V-15.771c0-7.679-3.5-11-9.349-11-5.738,0-9.243,3.32-9.243,11V0c0,7.678,3.505,11,9.243,11C25.5,11,29,7.678,29,0" fill="#00a8ff"/>
      </g>
      <g id="Group_172919" data-name="Group 172919" transform="translate(247.01 -72.227)">
        <path id="Path_818" data-name="Path 818" d="M0,0V-15.771C0-29.157,7.543-36.523,19.656-36.523c12.218,0,19.762,7.366,19.762,20.752V0c0,13.385-7.544,20.752-19.762,20.752C7.543,20.752,0,13.385,0,0M29,0V-15.771c0-7.679-3.5-11-9.349-11-5.738,0-9.244,3.32-9.244,11V0c0,7.678,3.506,11,9.244,11C25.5,11,29,7.678,29,0" fill="#00a8ff"/>
      </g>
      <g id="Group_172920" data-name="Group 172920" transform="translate(132.266 -223.641)">
        <path id="Path_819" data-name="Path 819" d="M0,0A7.761,7.761,0,0,0-7.761-7.761,7.761,7.761,0,0,0-15.521,0a7.761,7.761,0,0,0,7.76,7.761A7.761,7.761,0,0,0,0,0" fill="#00a8ff"/>
      </g>
      <g id="Group_172921" data-name="Group 172921" transform="translate(158.875 -223.641)">
        <path id="Path_820" data-name="Path 820" d="M0,0A7.761,7.761,0,0,0-7.761-7.761,7.761,7.761,0,0,0-15.521,0a7.761,7.761,0,0,0,7.76,7.761A7.761,7.761,0,0,0,0,0" fill="#00a8ff"/>
      </g>
      <g id="Group_172922" data-name="Group 172922" transform="translate(185.483 -223.641)">
        <path id="Path_821" data-name="Path 821" d="M0,0A7.761,7.761,0,0,0-7.761-7.761,7.761,7.761,0,0,0-15.521,0a7.761,7.761,0,0,0,7.76,7.761A7.761,7.761,0,0,0,0,0" fill="#00a8ff"/>
      </g>
      <g id="Group_172923" data-name="Group 172923" transform="translate(215.744 -170.886)">
        <path id="Path_822" data-name="Path 822" d="M0,0H-75.315l-30.319,26.028L-104.828,0h-25L-114.4-110.006h98.975ZM-85.27-94.549V-109.1a20.16,20.16,0,0,1,20.159-20.16A20.159,20.159,0,0,1-44.952-109.1v14.384" fill="none" stroke="#00a8ff" stroke-width="9.358"/>
      </g>
    </g>
  </g>
</svg>
